# xmcd
#
# Track frame offsets: 
#        150
#        16679
#        36669
#        55967
#        73327
#        91794
#        109292
#        125821
#        145811
#        165525
#        181915
#        198998
#
# Disc length: 2906 seconds
#
# Revision: 0
# Processed by: cddbd v1.5.2PL0 Copyright (c) Steve Scherf et al.
# Submitted via: ExactAudioCopyFreeDBPlugin 1.0
#
DISCID=ac0b580c
DTITLE=ก๊อต จักรพรรณ์ อาบครบุรี - จากใจที่รักเธอ
DYEAR=2004
DGENRE=ไทยลูกทุ่ง
TTITLE0=ใจสารภาพ
TTITLE1=รองเท้าหน้าห้อง
TTITLE2=รอวันของเรา
TTITLE3=จากคนที่รักเธอ
TTITLE4=ทำใจให้ชิน
TTITLE5=สามคำจากใจ
TTITLE6=ต้องมีสักวัน
TTITLE7=อยู่กับความคิดถึง
TTITLE8=สัญญาหัวใจ
TTITLE9=ขอโทษ
TTITLE10=คนหลงทาง
TTITLE11=สัญญาได้ไหม
EXTD=
EXTT0=
EXTT1=
EXTT2=
EXTT3=
EXTT4=
EXTT5=
EXTT6=
EXTT7=
EXTT8=
EXTT9=
EXTT10=
EXTT11=
PLAYORDER=
